Coordinates
version=1
nRows=22
nColumns=24
inDegrees=yes

Units are S.I. units (second, meters, Newtons, ...)
Angles are in degrees.

endheader
time	pelvis_tilt	pelvis_list	pelvis_rotation	pelvis_tx	pelvis_ty	pelvis_tz	hip_flexion_r	hip_adduction_r	hip_rotation_r	knee_angle_r	ankle_angle_r	subtalar_angle_r	mtp_angle_r	hip_flexion_l	hip_adduction_l	hip_rotation_l	knee_angle_l	ankle_angle_l	subtalar_angle_l	mtp_angle_l	lumbar_extension	lumbar_bending	lumbar_rotation
      1.08766667	     -1.35542320	      2.96041460	      0.14027409	      0.02865768	      0.98029408	      0.32165942	    -19.56321949	     -0.74471961	     -4.62560935	     -2.43864442	     15.90153976	      0.16928490	     -1.72381234	     23.22665449	      4.03660302	      2.69531691	      3.23203886	     -1.59446556	     -8.95340438	      2.47966560	    -12.11711769	      0.61040979	      7.73026658
      1.09183333	     -1.34989972	      3.12168472	      0.15401679	      0.03464810	      0.97929288	      0.32106288	    -19.69641039	     -0.97496399	     -4.86832149	     -2.98063771	     16.14397155	      0.51964302	     -1.50311663	     23.27712608	      4.30929775	      2.87077951	      3.03650361	     -1.81252798	     -9.19876624	      2.58633887	    -12.10571208	      0.42009692	      7.70622883
      1.09600000	     -1.35569620	      3.29684297	      0.17023381	      0.04065539	      0.97830896	      0.32045238	    -19.79440820	     -1.22291134	     -5.10466422	     -3.57364137	     16.37674823	      0.85461286	     -1.26364667	     23.35709832	      4.59915795	      3.05807708	      2.73066767	     -2.07176478	     -9.49429272	      2.69415991	    -12.07476427	      0.20806180	      7.67608282
      1.10016667	     -1.35249050	      3.49333377	      0.18587907	      0.04668269	      0.97736998	      0.31983303	    -19.88348086	     -1.49653751	     -5.33946730	     -4.20760122	     16.59958705	      1.18490786	     -1.01239317	     23.44381651	      4.91297479	      3.23765557	      2.32175150	     -2.38645989	     -9.83566311	      2.79971840	    -12.05461681	     -0.02794906	      7.63532979
      1.10433333	     -1.35902245	      3.70309555	      0.20658920	      0.05271734	      0.97644572	      0.31918917	    -19.93727524	     -1.78705691	     -5.57507821	     -4.89612752	     16.80596556	      1.50163916	     -0.73405430	     23.56074397	      5.24486290	      3.42403763	      1.81089732	     -2.74961768	    -10.23377737	      2.90965386	    -12.02675836	     -0.27391024	      7.59083186
      1.10850000	     -1.36666613	      3.92297688	      0.23104556	      0.05876265	      0.97555367	      0.31854341	    -19.97124018	     -2.08867148	     -5.79067114	     -5.62542712	     16.98719733	      1.77952915	     -0.44250061	     23.69936582	      5.58943875	      3.59207853	      1.20246894	     -3.15689516	    -10.65801920	      3.01652216	    -11.99567003	     -0.54130907	      7.53757049
      1.11266667	     -1.39034610	      4.15253676	      0.25673920	      0.06481442	      0.97467494	      0.31788021	    -19.96761532	     -2.40333328	     -5.98805556	     -6.39550496	     17.14371088	      2.02629471	     -0.13930018	     23.87480365	      5.94622491	      3.75143788	      0.50463453	     -3.61409993	    -11.11831705	      3.11902310	    -11.94882837	     -0.81195162	      7.48107291
      1.11683333	     -1.40557840	      4.39129997	      0.28937126	      0.07086993	      0.97383510	      0.31719925	    -19.94989916	     -2.72822136	     -6.18689283	     -7.21676634	     17.26952662	      2.25578227	      0.20538386	     24.05711652	      6.31702501	      3.90858654	     -0.26759812	     -4.10237879	    -11.61572721	      3.22540342	    -11.91293901	     -1.09692170	      7.41686032
      1.12100000	     -1.39503085	      4.62837067	      0.33867287	      0.07692857	      0.97306079	      0.31651404	    -19.96993208	     -3.03759104	     -6.31907771	     -8.00401863	     17.21581491	      2.22438165	      5.05951138	     24.21259840	      6.69353229	      4.12501944	     -1.07464309	     -4.68787551	    -12.25449268	      4.66102945	    -11.92129282	     -1.38057026	      7.32278548
      1.12516667	     -1.44462100	      4.87232944	      0.36795517	      0.08298465	      0.97224808	      0.31582780	    -19.86370118	     -3.37467927	     -6.47422195	     -8.92587429	     17.27820418	      2.42641668	      5.12630434	     24.49135433	      7.06663947	      4.14018695	     -2.03616777	     -5.16251320	    -12.62376289	      4.64150471	    -11.84268487	     -1.68058478	      7.27559260
      1.12933333	     -1.47374838	      5.11658207	      0.41146679	      0.08903626	      0.97148708	      0.31512393	    -19.76946357	     -3.70363709	     -6.59730900	     -9.86809380	     17.29198385	      2.52618560	      5.23307850	     24.74325652	      7.44802663	      4.23320994	     -3.01162559	     -5.70399102	    -13.14143362	      4.62213177	    -11.79686806	     -1.97423944	      7.19779165
      1.13350000	     -1.51138147	      5.35510497	      0.45791694	      0.09507329	      0.97075674	      0.31441852	    -19.64039178	     -4.02519517	     -6.68950000	    -10.85651109	     17.24622000	      2.56503244	      5.38161269	     25.01585525	      7.82453968	      4.32652129	     -4.03195914	     -6.24967530	    -13.68756560	      4.59926623	    -11.74589328	     -2.26294951	      7.12201628
      1.13766667	     -1.54490523	      5.59162110	      0.50644609	      0.10110884	      0.97006681	      0.31371194	    -19.49490561	     -4.34226249	     -6.75833703	    -11.88217351	     17.14842634	      2.55794740	      5.57878009	     25.29231747	      8.19916177	      4.41184305	     -5.08762384	     -6.78319650	    -14.23220393	      4.57020456	    -11.70144690	     -2.54999111	      7.04280369
      1.14183333	     -1.57478440	      5.82769453	      0.55809907	      0.10713127	      0.96942094	      0.31299714	    -19.33020966	     -4.65597169	     -6.79614835	    -12.94589797	     16.98644204	      2.48493013	      5.81422305	     25.57590179	      8.57453770	      4.47484767	     -6.18246456	     -7.28497332	    -14.75653868	      4.53281547	    -11.67092785	     -2.83561768	      6.96262231
      1.14600000	     -1.56890375	      6.06175492	      0.61603069	      0.11316161	      0.96885618	      0.31227274	    -19.18857731	     -4.96285631	     -6.83384229	    -14.02690665	     16.68457063	      2.28261308	     10.52833024	     25.81407850	      8.95476480	      4.57897772	     -7.28235635	     -7.74804960	    -15.35466042	      3.86380920	    -11.67293306	     -3.12772966	      6.83539595
      1.15016667	     -1.60769013	      6.27995471	      0.66028843	      0.11917330	      0.96827917	      0.31157990	    -18.95466951	     -5.25713702	     -6.82115085	    -15.18909665	     16.40059117	      2.13046052	     10.58178032	     26.12122522	      9.30307364	      4.57735398	     -8.43205522	     -8.13677115	    -15.75194807	      3.84807306	    -11.62088113	     -3.40322191	      6.79405061
      1.15433333	     -1.62662247	      6.49682164	      0.70258783	      0.12517474	      0.96776899	      0.31088441	    -18.71416537	     -5.54808314	     -6.79174125	    -16.39542110	     16.06221519	      1.92736057	     10.68595392	     26.39894447	      9.65222594	      4.60098636	     -9.57843061	     -8.48378491	    -16.20076489	      3.81660838	    -11.59609767	     -3.67445284	      6.72308039
      1.15850000	     -1.63690912	      6.70583214	      0.74809645	      0.13116344	      0.96730381	      0.31016140	    -18.45239743	     -5.83230543	     -6.76520639	    -17.64887026	     15.64196966	      1.72463314	     11.07778763	     26.65354702	     10.00342645	      4.69462655	    -10.71411228	     -8.75407774	    -16.73823391	      3.70572988	    -11.58667352	     -3.93588840	      6.67467804
      1.16266667	     -1.61198165	      6.93162062	      0.77029715	      0.13716871	      0.96694874	      0.30949249	    -18.20747805	     -6.13348600	     -6.70315685	    -18.91556958	     15.09148038	      1.36825460	     14.57247093	     26.85896282	     10.35472575	      4.69962323	    -11.82655368	     -9.02678393	    -17.18304650	      2.69063067	    -11.61771558	     -4.23372892	      6.66856220
      1.16683333	     -1.60496444	      7.13696050	      0.79995827	      0.14313255	      0.96658631	      0.30880993	    -17.89151045	     -6.41492733	     -6.64509745	    -20.28089807	     14.57138091	      1.07658985	     14.63294437	     27.09710336	     10.68347169	      4.66902305	    -12.98054769	     -9.09625893	    -17.43326881	      2.67421591	    -11.62430308	     -4.47308060	      6.52105454
      1.17100000	     -1.58026460	      7.34094806	      0.81373309	      0.14909021	      0.96630038	      0.30814153	    -17.56289245	     -6.69838809	     -6.56650827	    -21.68109230	     13.95169050	      0.74826366	     14.74054365	     27.29300698	     11.00846441	      4.66151498	    -14.09417285	     -9.13115633	    -17.74566250	      2.63830871	    -11.65180042	     -4.72552993	      6.45329155
      1.17516667	     -1.56016413	      7.52417058	      0.82523515	      0.15501849	      0.96604353	      0.30747376	    -17.19365931	     -6.96110040	     -6.47539573	    -23.12410674	     13.26214759	      0.41078972	     14.98811868	     27.49293433	     11.31276277	      4.64558465	    -15.21495455	     -9.09734145	    -18.06657676	      2.55285109	    -11.67645628	     -4.95597058	      6.41949295
